<?xml version="1.0" encoding="UTF-8"?>
<svg width="1e3" height="1e3" version="1.1" viewBox="0 0 264.58 264.58" xml:space="preserve" xmlns="http://www.w3.org/2000/svg"><path d="m126.56 258.99-4.964-0.29793-9.3429-1.5681-7.4476-1.8879-7.6834-2.6744-7.0215-3.0454-7.7053-4.302-5.6277-3.7084h-0.2753l-0.0022 4.2844-0.0022 4.2845-0.38898 1.4005-0.38897 1.4005-1.2275 1.8281-1.2275 1.8281-2.1134 1.0771-2.1134 1.0771-3.8228 0.0296-3.3756-0.95883-42.788-42.647-1.0089-1.8536-1.0089-1.8536-0.20396-1.9909-0.20396-1.9909 0.42152-1.5594 0.42152-1.5594 2.195-3.2682 10.978-11.513 1.6325-1.7886 1.6325-1.7886-1.5795-6.3246-1.2795-8.3785 0.0026-9.1402 0.0026-9.1402 0.81681-5.0422 0.81681-5.0422 0.79551-3.1459 0.79551-3.1459 1.9156-6.332 3.7196-9.0488 4.3131-8.6122 3.4838-6.0935 3.3931-5.3318 3.3931-5.3318 6.1645-8.7594 13.763-18.28 18.97-23.993 12.603-15.615 6.5324-7.8205 6.5325-7.8205 5.9315-6.3052 3.0579-1.56 4.3294-0.39258 3.8067 1.2644 1.5836 1.3555 1.5836 1.3555 11.989 13.449 8.0489 9.521 3.8133 4.7605 3.8132 4.7605 9.5144 12.568 3.7824 5.3318 3.7824 5.3318 4.181 6.4308 0.25838-2.3202 0.25836-2.3202 0.75065-1.4714 0.75069-1.4714 2.1554-2.1554 2.2665-1.172 4.6321-0.37182 4.0327 1.7348 42.242 43.021 0.98207 1.6758 0.98206 1.6758 0.19387 2.4153 0.19387 2.4153-0.93814 2.0492-0.93815 2.0492-18.418 19.033 0.21295 0.76168 0.21296 0.76167 0.92338 3.9989 0.92339 3.9988 0.64264 4.7605 0.64263 4.7605-5e-3 7.4264-5e-3 7.4264-0.65285 4.8904-0.65286 4.8904-2.1789 8.8805-3.1344 9.1402-2.9818 6.0935-2.9818 6.0934-2.7547 4.1706-2.7547 4.1706-2.8789 3.6367-2.8789 3.6366-9.1974 9.1754-6.4743 5.1723-9.521 6.3115-7.9977 4.2452-8.7594 3.528-8.8448 2.5583-7.9122 1.5119-7.236 0.78295-9.9019 0.30121zm12.403-9.4839 5.1537-0.37167 8.8789-1.5418 8.9961-2.6233 7.5317-3.0742 8.593-4.5134 3.5533-2.3614 3.5533-2.3614 3.6086-2.9077 3.6086-2.9077 7.5004-7.5625 2.4649-3.0739 2.4649-3.0739 2.4304-3.618 2.4304-3.618 2.2765-4.3797 2.2765-4.3797 1.742-4.3959 1.742-4.3959 2.292-9.1078 0.59977-3.8084 0.59976-3.8084 0.22032-6.7221 0.22031-6.7221-0.47422-4.2943-0.47422-4.2943-0.88629-4.274-0.88629-4.274-2.337-6.9754v-0.77968l20.756-21.273 0.14049-0.41784 0.14048-0.41783-20.126-20.294-19.573-20.077-1e-4 10.991-1e-4 10.991-21.955 0.1086-7.179 0.89921-8.7594 1.9218-9.521 3.4323-8.1048 4.134-3.9453 2.6156-3.9453 2.6156-7.4003 6.2005-6.853 7.3974-2.125 2.6659-2.125 2.6659-2.2219 3.2372-2.2219 3.2372-1.8948 3.2372-1.8948 3.2371-2.9689 5.5222-2.9689 5.5222-5.1712 8.8192-4.6315 6.2465-5.8497 6.1228-6.1333 4.066-4.8271 1.9494-4.2625 0.78795h-4.4302v-9.0418l4.5562-0.51548 4.2683-1.4685 4.3145-2.4342 5.7126-5.7725 4.4055-6.6636 7.3021-13.521 5.7341-9.9019 4.3524-6.4743 6.769-8.7594 11.044-11.095 6.0935-4.5995 7.236-4.7647 9.9019-4.7951 8.7594-3.0278 8.7594-1.9505 8.7594-1.1603 9.3248-0.21735 3e-3 -0.27008 3e-3 -0.27009-10.863-16.217-5.0869-6.8297-5.0868-6.8298-10.566-13.153-10.804-12.795-9.5168-10.854h-1.3274l-3.0007 3.5228-3.0007 3.5228-8.0093 9.521-14.078 17.138-12.194 15.234-14.508 18.661-9.9505 13.387-8.0663 11.985-2.4707 4.1623-2.4707 4.1622-4.304 8.5769-3.2629 8.113-2.3693 8.2632-1.4542 7.236-0.90249 7.9376 0.19788 7.266 0.19788 7.266 1.671 9.459 1.0497 3.5308 1.0497 3.5309-6.8784 7.4723-11.283 11.951v0.9391l39.768 39.856h0.20534l0.20534 1e-5v-29.484l17.9-0.1468 8.3785-1.2636 5.7126-1.4511 5.3318-1.8247 6.4743-2.9324 7.236-4.1129 7.236-5.3624 9.5844-9.5963 2.3392-3.1071 2.3392-3.1071 2.2385-3.5576 2.2385-3.5576 4.4736-8.8446 4.4737-8.8446 3.7192-5.6274 3.7191-5.6274 5.6862-6.4743 4.7469-4.3838 4.3318-2.9392 5.3318-2.6627 3.8084-1.2142 6.368-1.1774h7.5327v9.0251l-7.4264 0.46503-6.0935 1.5467-6.8605 3.3764-5.7072 4.8804-1.7456 2.064-1.7456 2.064-3.826 5.3318-2.1132 3.618-2.1132 3.618-6.2157 12.757-6.0851 10.057-3.9307 5.3683-5.4516 6.4743-7.2005 6.9506-7.5698 5.6336-9.1554 5.4742-5.9532 2.713-3.7195 1.2947-3.7195 1.2947-8.6704 1.9149-3.618 0.43489-3.618 0.43487-9.3468 0.51347 5.1576 3.9073 7.1787 4.6943 6.2989 3.4335 6.8357 2.9648 6.7266 2.3748 8.7593 2.2037 8.7594 1.162 4.1892 0.25534 3.8084 0.1342z" style="fill:#333;stroke-width:0"/></svg>
